<mxfile host="65bd71144e">
    <diagram name="Page-1" id="lX3twSQKGP3NPyZ5zAtj">
        <mxGraphModel dx="1109" dy="795" grid="1" gridSize="10" guides="1" tooltips="1" connect="1" arrows="1" fold="1" page="1" pageScale="1" pageWidth="827" pageHeight="1169" math="0" shadow="0">
            <root>
                <mxCell id="0"/>
                <mxCell id="1" parent="0"/>
                <mxCell id="LCPyGsaO_YFeMnD2ww-F-1" value="&lt;pre class=&quot;p-code-container p-code-container--block p-code-highlight__code-wrapper&quot;&gt;&lt;code&gt;COMPLETED&lt;/code&gt;&lt;/pre&gt;" style="ellipse;whiteSpace=wrap;html=1;strokeWidth=2;fillColor=#2E0000;" parent="1" vertex="1">
                    <mxGeometry x="90" y="380" width="120" height="80" as="geometry"/>
                </mxCell>
                <mxCell id="LCPyGsaO_YFeMnD2ww-F-4" style="rounded=0;orthogonalLoop=1;jettySize=auto;html=1;" parent="1" source="LCPyGsaO_YFeMnD2ww-F-2" target="LCPyGsaO_YFeMnD2ww-F-1" edge="1">
                    <mxGeometry relative="1" as="geometry"/>
                </mxCell>
                <mxCell id="2" style="edgeStyle=none;html=1;" parent="1" source="LCPyGsaO_YFeMnD2ww-F-2" target="LCPyGsaO_YFeMnD2ww-F-7" edge="1">
                    <mxGeometry relative="1" as="geometry"/>
                </mxCell>
                <mxCell id="7" style="edgeStyle=none;html=1;strokeWidth=1;" parent="1" source="LCPyGsaO_YFeMnD2ww-F-2" target="6" edge="1">
                    <mxGeometry relative="1" as="geometry"/>
                </mxCell>
                <mxCell id="10" style="edgeStyle=none;html=1;" parent="1" source="LCPyGsaO_YFeMnD2ww-F-2" target="9" edge="1">
                    <mxGeometry relative="1" as="geometry"/>
                </mxCell>
                <mxCell id="LCPyGsaO_YFeMnD2ww-F-2" value="&lt;pre class=&quot;p-code-container p-code-container--block p-code-highlight__code-wrapper&quot;&gt;&lt;code&gt;RUNNING&lt;/code&gt;&lt;/pre&gt;" style="ellipse;whiteSpace=wrap;html=1;" parent="1" vertex="1">
                    <mxGeometry x="249" y="380" width="120" height="80" as="geometry"/>
                </mxCell>
                <mxCell id="LCPyGsaO_YFeMnD2ww-F-8" style="rounded=0;orthogonalLoop=1;jettySize=auto;html=1;" parent="1" source="LCPyGsaO_YFeMnD2ww-F-5" target="LCPyGsaO_YFeMnD2ww-F-7" edge="1">
                    <mxGeometry relative="1" as="geometry"/>
                </mxCell>
                <mxCell id="LCPyGsaO_YFeMnD2ww-F-10" style="rounded=0;orthogonalLoop=1;jettySize=auto;html=1;" parent="1" source="LCPyGsaO_YFeMnD2ww-F-5" target="LCPyGsaO_YFeMnD2ww-F-9" edge="1">
                    <mxGeometry relative="1" as="geometry"/>
                </mxCell>
                <mxCell id="4" style="edgeStyle=none;html=1;strokeWidth=1;" parent="1" source="LCPyGsaO_YFeMnD2ww-F-5" target="3" edge="1">
                    <mxGeometry relative="1" as="geometry"/>
                </mxCell>
                <mxCell id="LCPyGsaO_YFeMnD2ww-F-5" value="&lt;pre class=&quot;p-code-container p-code-container--block p-code-highlight__code-wrapper&quot;&gt;&lt;code&gt;SCHEDULED&lt;/code&gt;&lt;/pre&gt;" style="ellipse;whiteSpace=wrap;html=1;" parent="1" vertex="1">
                    <mxGeometry x="553" y="270" width="120" height="80" as="geometry"/>
                </mxCell>
                <mxCell id="LCPyGsaO_YFeMnD2ww-F-7" value="&lt;pre class=&quot;p-code-container p-code-container--block p-code-highlight__code-wrapper&quot;&gt;&lt;code&gt;CANCELLED&lt;/code&gt;&lt;/pre&gt;" style="ellipse;whiteSpace=wrap;html=1;strokeWidth=2;fillColor=#2E0000;" parent="1" vertex="1">
                    <mxGeometry x="379" y="480" width="120" height="80" as="geometry"/>
                </mxCell>
                <mxCell id="LCPyGsaO_YFeMnD2ww-F-11" style="rounded=0;orthogonalLoop=1;jettySize=auto;html=1;" parent="1" source="LCPyGsaO_YFeMnD2ww-F-9" target="LCPyGsaO_YFeMnD2ww-F-7" edge="1">
                    <mxGeometry relative="1" as="geometry"/>
                </mxCell>
                <mxCell id="LCPyGsaO_YFeMnD2ww-F-12" style="rounded=0;orthogonalLoop=1;jettySize=auto;html=1;" parent="1" source="3" target="LCPyGsaO_YFeMnD2ww-F-2" edge="1">
                    <mxGeometry relative="1" as="geometry"/>
                </mxCell>
                <mxCell id="5" style="edgeStyle=none;html=1;entryX=1;entryY=1;entryDx=0;entryDy=0;strokeWidth=1;" parent="1" source="LCPyGsaO_YFeMnD2ww-F-9" target="3" edge="1">
                    <mxGeometry relative="1" as="geometry"/>
                </mxCell>
                <mxCell id="8" style="edgeStyle=none;html=1;strokeWidth=1;" parent="1" source="LCPyGsaO_YFeMnD2ww-F-9" target="LCPyGsaO_YFeMnD2ww-F-2" edge="1">
                    <mxGeometry relative="1" as="geometry"/>
                </mxCell>
                <mxCell id="LCPyGsaO_YFeMnD2ww-F-9" value="LATE" style="ellipse;whiteSpace=wrap;html=1;" parent="1" vertex="1">
                    <mxGeometry x="569" y="430" width="120" height="80" as="geometry"/>
                </mxCell>
                <mxCell id="LCPyGsaO_YFeMnD2ww-F-13" value="" style="endArrow=classic;html=1;rounded=0;entryX=1;entryY=0;entryDx=0;entryDy=0;strokeWidth=2;" parent="1" target="LCPyGsaO_YFeMnD2ww-F-5" edge="1">
                    <mxGeometry width="50" height="50" relative="1" as="geometry">
                        <mxPoint x="679" y="250" as="sourcePoint"/>
                        <mxPoint x="589" y="170" as="targetPoint"/>
                    </mxGeometry>
                </mxCell>
                <mxCell id="3" value="&lt;pre class=&quot;p-code-container p-code-container--block p-code-highlight__code-wrapper&quot;&gt;&lt;code&gt;&lt;span class=&quot;hljs-string&quot;&gt;PENDING&lt;/span&gt;&lt;/code&gt;&lt;/pre&gt;" style="ellipse;whiteSpace=wrap;html=1;" parent="1" vertex="1">
                    <mxGeometry x="389" y="310" width="120" height="80" as="geometry"/>
                </mxCell>
                <mxCell id="6" value="&lt;meta charset=&quot;utf-8&quot;&gt;&lt;pre class=&quot;p-code-container p-code-container--block p-code-highlight__code-wrapper&quot;&gt;&lt;code&gt;&lt;span class=&quot;hljs-string&quot;&gt;CRASHED&lt;/span&gt;&lt;/code&gt;&lt;/pre&gt;" style="ellipse;whiteSpace=wrap;html=1;strokeWidth=2;fillColor=#2E0000;" parent="1" vertex="1">
                    <mxGeometry x="90" y="230" width="120" height="80" as="geometry"/>
                </mxCell>
                <mxCell id="9" value="&lt;pre class=&quot;p-code-container p-code-container--block p-code-highlight__code-wrapper&quot;&gt;&lt;code&gt;FAILED&lt;/code&gt;&lt;/pre&gt;" style="ellipse;whiteSpace=wrap;html=1;strokeWidth=2;fillColor=#2E0000;" parent="1" vertex="1">
                    <mxGeometry x="90" y="530" width="120" height="80" as="geometry"/>
                </mxCell>
            </root>
        </mxGraphModel>
    </diagram>
</mxfile>